<svg width="114" height="26" viewBox="0 0 114 26" fill="none" xmlns="http://www.w3.org/2000/svg">
<path d="M41.8214 5.76466H39.8974C39.8267 5.7646 39.7578 5.78625 39.6998 5.82667C39.6419 5.86708 39.5978 5.92432 39.5734 5.99064L36.5076 14.3648L33.4219 5.98973C33.3974 5.92358 33.3532 5.86654 33.2953 5.82629C33.2373 5.78605 33.1684 5.76454 33.0979 5.76466H31.1729C31.1168 5.76467 31.0616 5.77836 31.012 5.80455C30.9624 5.83074 30.9199 5.86863 30.8883 5.91495C30.8566 5.96126 30.8367 6.0146 30.8304 6.07033C30.824 6.12606 30.8313 6.18251 30.8517 6.23478L34.9965 16.8615C35.0218 16.9262 35.0659 16.9818 35.1232 17.021C35.1806 17.0601 35.2484 17.0811 35.3178 17.0811H37.6775C37.7469 17.0811 37.8147 17.0601 37.8721 17.021C37.9294 16.9818 37.9736 16.9262 37.9988 16.8615L42.1436 6.23478C42.1641 6.1823 42.1714 6.1256 42.1649 6.06965C42.1583 6.0137 42.1382 5.9602 42.1063 5.91382C42.0743 5.86744 42.0315 5.82959 41.9815 5.80359C41.9315 5.77759 41.8759 5.76422 41.8196 5.76466H41.8214Z" fill="#034854"/>
<path d="M61.8112 5.47075C61.1248 5.42575 60.4386 5.56327 59.8225 5.86933C59.2064 6.17538 58.6823 6.63907 58.3034 7.21328V6.11058C58.3034 6.01912 58.2671 5.9314 58.2024 5.86672C58.1378 5.80204 58.05 5.76571 57.9586 5.76571H56.2043C56.1128 5.76571 56.0251 5.80204 55.9604 5.86672C55.8957 5.9314 55.8594 6.01912 55.8594 6.11058V16.7364C55.8594 16.7817 55.8683 16.8265 55.8856 16.8684C55.903 16.9102 55.9284 16.9482 55.9604 16.9803C55.9924 17.0123 56.0304 17.0377 56.0723 17.055C56.1141 17.0723 56.159 17.0813 56.2043 17.0813H57.9604C58.0057 17.0813 58.0505 17.0723 58.0924 17.055C58.1342 17.0377 58.1722 17.0123 58.2043 16.9803C58.2363 16.9482 58.2617 16.9102 58.279 16.8684C58.2964 16.8265 58.3053 16.7817 58.3053 16.7364V11.0187C58.3053 8.70986 59.5759 7.75963 61.1814 7.75963C61.5293 7.73137 61.8792 7.78065 62.2058 7.90394C62.5324 8.02724 62.8276 8.22146 63.0701 8.47262C63.3125 8.72377 63.4963 9.0256 63.608 9.35634C63.7197 9.68707 63.7567 10.0385 63.7162 10.3852V16.7382C63.7162 16.7835 63.7251 16.8283 63.7424 16.8702C63.7598 16.912 63.7852 16.95 63.8172 16.9821C63.8492 17.0141 63.8872 17.0395 63.9291 17.0568C63.9709 17.0742 64.0158 17.0831 64.0611 17.0831H65.8154C65.8607 17.0831 65.9055 17.0742 65.9474 17.0568C65.9892 17.0395 66.0272 17.0141 66.0593 16.9821C66.0913 16.95 66.1167 16.912 66.134 16.8702C66.1513 16.8283 66.1603 16.7835 66.1603 16.7382V10.1329C66.1576 7.1915 64.3461 5.47075 61.8112 5.47075Z" fill="#034854"/>
<path d="M107.264 5.47073C106.473 5.44247 105.686 5.57692 104.949 5.86572C104.213 6.15452 103.544 6.59151 102.984 7.14959C102.424 7.70767 101.984 8.37493 101.692 9.10997C101.401 9.84501 101.263 10.6321 101.288 11.4226C101.337 12.6657 101.758 13.8655 102.498 14.8657C103.238 15.8658 104.262 16.6199 105.437 17.0298C106.612 17.4397 107.882 17.4863 109.084 17.1636C110.286 16.841 111.362 16.1639 112.173 15.2207C112.203 15.182 112.224 15.1374 112.235 15.0899C112.246 15.0423 112.247 14.993 112.237 14.9452C112.228 14.8973 112.208 14.8521 112.18 14.8124C112.151 14.7728 112.115 14.7396 112.073 14.7152L110.651 13.8802C110.581 13.8393 110.499 13.8244 110.419 13.838C110.339 13.8516 110.267 13.8929 110.215 13.9547C109.871 14.3405 109.448 14.6461 108.973 14.85C108.498 15.0539 107.985 15.151 107.469 15.1345C106.644 15.206 105.821 14.9742 105.155 14.4827C104.489 13.9912 104.025 13.2736 103.85 12.4644H112.556C112.641 12.4644 112.722 12.4335 112.785 12.3777C112.848 12.3219 112.888 12.2449 112.899 12.1613C112.929 11.9241 112.946 11.6853 112.948 11.4462C112.984 10.6768 112.863 9.90836 112.593 9.18695C112.324 8.46554 111.911 7.80611 111.38 7.24832C110.849 6.69053 110.211 6.24591 109.503 5.94121C108.796 5.6365 108.035 5.47801 107.264 5.47526L107.264 5.47073ZM103.823 10.4723C103.947 9.66775 104.365 8.93777 104.996 8.42361C105.627 7.90945 106.427 7.64764 107.24 7.68882C108.03 7.66164 108.802 7.93286 109.402 8.44858C110.001 8.96429 110.385 9.68674 110.476 10.4723H103.823Z" fill="#034854"/>
<path d="M53.4803 5.76478H51.7259C51.6345 5.76478 51.5468 5.80111 51.4821 5.86579C51.4174 5.93046 51.3811 6.01818 51.3811 6.10965V6.37466C50.4184 5.78075 49.3085 5.46853 48.1774 5.47345C46.5986 5.47345 45.0845 6.10061 43.9681 7.21696C42.8518 8.33332 42.2246 9.84742 42.2246 11.4262C42.2246 13.0049 42.8518 14.5191 43.9681 15.6354C45.0845 16.7518 46.5986 17.3789 48.1774 17.3789C49.3093 17.383 50.4195 17.0685 51.3811 16.4714V16.7382C51.3811 16.8296 51.4174 16.9174 51.4821 16.982C51.5468 17.0467 51.6345 17.0831 51.7259 17.0831H53.4803C53.5717 17.0831 53.6595 17.0467 53.7241 16.982C53.7888 16.9174 53.8251 16.8296 53.8251 16.7382V6.10965C53.8251 6.01818 53.7888 5.93046 53.7241 5.86579C53.6595 5.80111 53.5717 5.76478 53.4803 5.76478ZM51.3802 12.9808C51.028 13.71 50.4388 14.298 49.709 14.6487C48.9791 14.9995 48.1519 15.0921 47.3625 14.9114C46.5732 14.7308 45.8686 14.2876 45.3639 13.6544C44.8592 13.0212 44.5844 12.2355 44.5844 11.4257C44.5844 10.616 44.8592 9.83024 45.3639 9.19703C45.8686 8.56382 46.5732 8.12064 47.3625 7.94001C48.1519 7.75939 48.9791 7.85201 49.709 8.20272C50.4388 8.55343 51.028 9.14147 51.3802 9.87061V12.9808Z" fill="#034854"/>
<path d="M86.1619 5.76478H84.4076C84.3161 5.76478 84.2284 5.80111 84.1637 5.86579C84.0991 5.93046 84.0627 6.01818 84.0627 6.10965V6.37466C83.1 5.78075 81.9901 5.46853 80.859 5.47345C79.2802 5.47345 77.7661 6.10061 76.6498 7.21696C75.5334 8.33332 74.9063 9.84742 74.9062 11.4262C74.9063 13.0049 75.5334 14.5191 76.6498 15.6354C77.7661 16.7518 79.2802 17.3789 80.859 17.3789C81.9909 17.383 83.1011 17.0685 84.0627 16.4714V16.7382C84.0627 16.8296 84.0991 16.9174 84.1637 16.982C84.2284 17.0467 84.3161 17.0831 84.4076 17.0831H86.1619C86.2534 17.0831 86.3411 17.0467 86.4058 16.982C86.4705 16.9174 86.5068 16.8296 86.5068 16.7382V6.10965C86.5068 6.01818 86.4705 5.93046 86.4058 5.86579C86.3411 5.80111 86.2534 5.76478 86.1619 5.76478ZM84.0618 12.9808C83.7097 13.71 83.1204 14.298 82.3906 14.6487C81.6608 14.9995 80.8335 15.0921 80.0442 14.9114C79.2549 14.7308 78.5502 14.2876 78.0455 13.6544C77.5409 13.0212 77.266 12.2355 77.266 11.4257C77.266 10.616 77.5409 9.83024 78.0455 9.19703C78.5502 8.56382 79.2549 8.12064 80.0442 7.94001C80.8335 7.75939 81.6608 7.85201 82.3906 8.20272C83.1204 8.55343 83.7097 9.14147 84.0618 9.87061V12.9808Z" fill="#034854"/>
<path d="M99.3623 5.76474H97.6089C97.5174 5.76474 97.4297 5.80108 97.365 5.86575C97.3004 5.93043 97.264 6.01815 97.264 6.10962V6.37009C96.3018 5.77682 95.1925 5.46494 94.0621 5.46978C92.4833 5.46978 90.9692 6.09694 89.8529 7.2133C88.7365 8.32965 88.1094 9.84375 88.1094 11.4225C88.1094 13.0013 88.7365 14.5154 89.8529 15.6317C90.9692 16.7481 92.4833 17.3753 94.0621 17.3753C95.1934 17.379 96.303 17.0645 97.264 16.4677V16.5893C97.264 18.5968 95.9716 19.774 93.8252 19.774C92.0192 19.774 91.147 19.1387 90.6197 18.2892C90.5725 18.2135 90.4978 18.159 90.4113 18.1373C90.3248 18.1157 90.2332 18.1285 90.1559 18.173L88.6076 19.0724C88.5674 19.096 88.5323 19.1274 88.5045 19.1649C88.4767 19.2023 88.4568 19.245 88.4458 19.2903C88.4349 19.3356 88.4332 19.3827 88.4409 19.4287C88.4486 19.4747 88.4655 19.5186 88.4905 19.558C89.5116 21.1979 91.3902 22.0374 93.7789 22.0374C96.802 22.0374 99.7099 20.3067 99.7099 16.592V6.10871C99.7098 6.06334 99.7007 6.01845 99.6832 5.97659C99.6657 5.93473 99.6401 5.89674 99.6079 5.86479C99.5757 5.83284 99.5375 5.80755 99.4955 5.79038C99.4536 5.77322 99.4086 5.7645 99.3632 5.76474H99.3623ZM97.2604 12.9808C96.9075 13.7092 96.318 14.2964 95.5882 14.6464C94.8584 14.9963 94.0314 15.0883 93.2426 14.9073C92.4537 14.7263 91.7495 14.2831 91.2452 13.65C90.7409 13.0169 90.4664 12.2314 90.4664 11.4221C90.4664 10.6127 90.7409 9.82724 91.2452 9.19416C91.7495 8.56107 92.4537 8.11779 93.2426 7.9368C94.0314 7.75581 94.8584 7.8478 95.5882 8.19775C96.318 8.54769 96.9075 9.13488 97.2604 9.86332V12.9808Z" fill="#034854"/>
<path d="M74.219 15.0519C74.1868 14.9991 74.141 14.9558 74.0864 14.9268C74.0318 14.8977 73.9704 14.8839 73.9086 14.8867C72.1334 14.9675 70.6413 14.9457 70.6413 13.5508V9.3678L75.4469 5.76748H70.6413V3.31704C70.6413 3.22558 70.605 3.13786 70.5403 3.07318C70.4757 3.0085 70.3879 2.97217 70.2965 2.97217H68.5421C68.4507 2.97217 68.363 3.0085 68.2983 3.07318C68.2336 3.13786 68.1973 3.22558 68.1973 3.31704V13.5517C68.1973 16.494 70.2493 17.535 74.0057 17.0821C74.2725 17.0558 74.562 17.0077 74.8406 16.9532C74.8949 16.9424 74.9457 16.9186 74.9888 16.8839C75.0319 16.8492 75.066 16.8046 75.0881 16.7539C75.1103 16.7032 75.1199 16.6479 75.1162 16.5927C75.1125 16.5375 75.0955 16.4841 75.0666 16.4368L74.219 15.0519Z" fill="#034854"/>
<path d="M0.277344 0H7.24383L17.8134 19.5771L14.3446 26L0.277344 0Z" fill="#034854"/>
<path d="M9.83398 0H28.3965L19.1583 17.0804V5.76487L9.83398 0Z" fill="#E35728"/>
</svg>
