<?xml version="1.0" encoding="UTF-8"?>
<svg xmlns="http://www.w3.org/2000/svg" width="234" height="65" viewBox="0 0 234 65" fill="none">
  <path d="M76.0473 42.4327C75.1315 39.731 74.2695 37.4001 73.5153 35.44L72.0607 31.7848C71.7375 30.9372 71.2527 29.8247 70.6601 28.4473C70.3907 27.8116 69.9597 26.9111 69.4749 25.7456C69.1517 25.057 68.6668 24.0504 68.0742 22.7261L69.852 22.779L71.8453 22.6731L72.8688 25.8516C73.0843 26.4873 73.4076 27.4408 73.8385 28.6592C74.8082 31.308 76.1012 34.5924 77.7712 38.3536L78.0405 38.9363L78.3099 38.3536C79.1719 36.3936 79.8722 34.6454 80.5187 33.1091C81.1651 31.5729 81.7038 30.0896 82.1887 28.6592C82.5119 27.8646 82.8352 26.9111 83.1584 25.9046L84.182 22.6731C84.2897 22.6731 84.3975 22.6731 84.5052 22.7261C84.7746 22.7261 85.0439 22.779 85.3672 22.779L86.1752 22.7261C85.6904 23.7326 85.2055 24.7391 84.7207 25.7456C84.2897 26.6992 83.8587 27.5997 83.5355 28.4473C83.0506 29.5598 82.6197 30.6723 82.1348 31.7848C81.65 32.8972 81.1651 34.1156 80.6803 35.493L78.0405 42.5386H76.0473V42.4327Z" fill="#006098"></path>
  <path d="M87.8991 42.3799C87.8991 41.1614 87.953 39.8901 88.0068 38.5127C88.0607 36.9764 88.1146 36.0229 88.1146 35.4932V33.9039C88.1146 33.5861 88.0607 32.6855 88.0068 31.1492C87.953 29.8249 87.8991 28.6594 87.8991 27.6529C88.1146 27.7059 88.3301 27.7059 88.5455 27.7059C88.8149 27.7059 89.0843 27.7588 89.4075 27.7588C89.8385 27.7588 90.3233 27.7059 90.862 27.6529C90.862 28.6064 90.862 29.507 90.8082 30.3016C90.7543 32.4736 90.7004 33.745 90.7004 34.1158V36.1288L90.862 42.3799L90.3233 42.3269C90.054 42.3269 89.8923 42.2739 89.8385 42.2739H89.3536L87.8991 42.3799ZM89.3536 24.9512C88.8688 24.9512 88.4917 24.7923 88.1684 24.4744C87.8452 24.1566 87.6836 23.7328 87.6836 23.256C87.6836 22.7792 87.8452 22.4084 88.1684 22.0905C88.4917 21.7727 88.9227 21.6138 89.3536 21.6138C89.8385 21.6138 90.2156 21.7727 90.5388 22.0905C90.862 22.4084 91.0237 22.7792 91.0237 23.256C91.0237 23.7328 90.862 24.1036 90.5388 24.4744C90.2156 24.7923 89.8385 24.9512 89.3536 24.9512Z" fill="#006098"></path>
  <path d="M96.5709 42.3268L95.0625 42.3798C95.0625 41.4262 95.1164 40.4727 95.1702 39.5721C95.3319 37.1883 95.3857 35.8109 95.3857 35.4401V33.9568C95.3857 32.8973 95.3857 32.1557 95.3319 31.6789C95.2241 29.7188 95.1702 28.3945 95.1702 27.7588C95.3857 27.7588 95.6012 27.8117 95.8167 27.8117C96.0861 27.8117 96.3554 27.8647 96.6248 27.8647C97.0019 27.8647 97.4867 27.8117 98.0255 27.7588L97.9177 28.8712V30.9372L98.4564 30.1956C98.618 29.9307 98.7797 29.7188 98.9413 29.5069C99.1568 29.1891 99.4261 28.9242 99.6955 28.7123C100.773 27.8117 102.012 27.3879 103.359 27.3879C104.867 27.3879 106.052 27.8117 106.914 28.6593C107.776 29.5069 108.261 30.6724 108.261 32.1557V36.2877C108.261 37.4002 108.261 38.1418 108.261 38.6186C108.315 40.5786 108.369 41.85 108.369 42.4857L106.914 42.4328L105.406 42.4857C105.406 41.4262 105.406 40.4727 105.46 39.7311C105.621 35.9169 105.621 35.8639 105.621 35.8639V32.7914C105.621 31.6789 105.46 30.8843 105.19 30.4075C104.921 29.9307 104.49 29.5599 103.951 29.295C103.413 29.0302 102.82 28.9242 102.174 28.9242C100.881 28.9242 99.8571 29.401 99.049 30.3545C98.2948 31.3081 97.9177 32.5265 97.9177 34.0628V36.2877C97.9177 36.5526 97.9716 37.771 98.0793 39.89C98.1332 40.6846 98.1332 41.5852 98.1332 42.5387L96.5709 42.3268Z" fill="#006098"></path>
  <path d="M123.184 42.6976C121.999 42.6976 121.245 42.1149 120.868 40.8435L120.706 40.3667L120.383 40.7376C119.305 42.0619 117.905 42.6447 116.127 42.6447C114.834 42.6447 113.81 42.2738 113.002 41.5322C112.248 40.7905 111.871 39.784 111.871 38.5656C111.871 37.5061 112.14 36.6585 112.733 35.9698C113.11 35.4931 113.595 35.1223 114.134 34.8574C114.672 34.5925 115.696 34.2747 117.043 33.9568L118.336 33.639C119.198 33.4271 119.79 33.1622 120.114 32.8973C120.491 32.6324 120.652 32.1557 120.652 31.5729C120.652 30.6194 120.329 29.8778 119.736 29.295C119.144 28.7123 118.336 28.4474 117.42 28.4474C115.911 28.4474 114.619 29.1361 113.541 30.4605C113.487 30.2486 113.433 30.0897 113.433 29.9307C113.38 29.7188 113.326 29.5069 113.218 29.2421C114.08 28.5534 114.942 28.0766 115.696 27.8117C116.504 27.5469 117.42 27.3879 118.497 27.3879C120.006 27.3879 121.191 27.7058 122.053 28.3945C122.861 29.0831 123.292 29.9837 123.292 31.2551V38.4067C123.292 39.3073 123.346 39.943 123.4 40.2608C123.561 41.1084 124.154 41.5852 125.07 41.5852C125.231 41.5852 125.393 41.5322 125.608 41.4792L125.662 41.956C125.285 42.1679 124.908 42.3268 124.531 42.4328C123.992 42.6447 123.561 42.6976 123.184 42.6976ZM120.221 33.6919C119.898 33.7979 119.575 33.9568 119.144 34.1157C118.713 34.2747 118.336 34.3806 117.959 34.4866C117.043 34.6985 116.396 34.9633 115.965 35.1752C115.534 35.4401 115.157 35.8109 114.942 36.2877C114.672 36.8704 114.511 37.5061 114.511 38.1418C114.511 39.1483 114.726 39.943 115.211 40.5257C115.696 41.1084 116.396 41.4262 117.258 41.4262C117.851 41.4262 118.443 41.2673 119.036 40.8965C119.629 40.5257 120.06 40.1019 120.275 39.5721C120.491 39.0424 120.598 38.4067 120.598 37.6121V33.533L120.221 33.6919Z" fill="#006098"></path>
  <path d="M134.661 42.2737H131.752L129.543 42.3797L129.705 39.678C129.705 38.8304 129.705 37.3471 129.758 35.2811C129.812 33.2151 129.812 32.0496 129.812 31.8907V28.5003C129.812 28.2354 129.758 27.3878 129.705 25.9575C129.651 24.7391 129.597 23.6266 129.597 22.6731C129.812 22.6731 130.082 22.7261 130.351 22.7261C130.728 22.7261 131.051 22.7261 131.267 22.7261H131.698C131.967 22.7261 132.344 22.7261 132.883 22.6731L132.668 25.5867C132.668 26.2754 132.668 27.3878 132.614 29.0301C132.614 30.6193 132.56 31.5729 132.56 31.7847L132.614 38.8304V41.2143H136.223C136.923 41.2143 137.462 41.2143 137.947 41.1613C138.593 41.0553 139.186 41.0024 139.671 40.9494C139.671 41.0024 139.671 41.0553 139.671 41.1083C139.671 41.3202 139.617 41.5321 139.617 41.691C139.617 41.9029 139.617 42.0618 139.617 42.2208C139.617 42.2737 139.617 42.3267 139.617 42.3797L134.661 42.2737Z" fill="#FF8300"></path>
  <path d="M147.913 42.5387C145.597 42.5387 143.711 41.85 142.256 40.4727C140.802 39.0954 140.102 37.2412 140.102 34.9633C140.102 32.7384 140.802 30.8843 142.256 29.454C143.711 28.0236 145.597 27.335 147.859 27.335C150.176 27.335 152.061 28.0236 153.516 29.454C154.97 30.8843 155.671 32.6854 155.671 34.9633C155.671 37.2412 154.97 39.0954 153.516 40.4727C152.115 41.7971 150.23 42.5387 147.913 42.5387ZM147.913 28.2355C146.351 28.2355 145.112 28.8183 144.25 30.0367C143.442 31.2021 143.011 32.8973 143.011 35.0693C143.011 37.2412 143.442 38.9364 144.25 40.1019C145.112 41.2673 146.297 41.903 147.913 41.903C149.475 41.903 150.714 41.3203 151.576 40.1549C152.438 38.9894 152.815 37.4002 152.815 35.2812C152.815 30.5664 151.199 28.2355 147.913 28.2355Z" fill="#FF8300"></path>
  <path d="M164.612 49.6373C162.511 49.6373 160.841 49.2665 159.602 48.5249C158.363 47.7832 157.824 46.8297 157.824 45.6642C157.824 44.9226 158.094 44.2339 158.632 43.5982C159.171 42.9625 159.979 42.4328 161.003 42.009L161.703 41.7441L161.003 41.5322C159.817 41.1614 159.225 40.4727 159.225 39.5192C159.225 38.5656 160.087 37.771 161.811 37.1353L162.565 36.8704L161.811 36.6055C159.602 35.8639 158.578 34.4866 158.578 32.3676C158.578 30.8313 159.117 29.6659 160.141 28.7653C161.218 27.8647 162.619 27.3879 164.397 27.3879C164.666 27.3879 164.989 27.3879 165.366 27.4409C165.797 27.4939 166.282 27.5469 166.929 27.5998L167.791 27.7588H170.269C170.861 27.7588 171.562 27.7058 172.208 27.6528L172.154 28.3945L172.208 28.8712C171.346 28.7123 170.592 28.6064 169.999 28.6064H168.545L169.137 29.0831C169.73 29.5599 170.107 30.0367 170.376 30.5134C170.592 30.9902 170.7 31.6259 170.7 32.3676C170.7 33.6919 170.161 34.8044 169.03 35.705C167.898 36.6055 166.444 37.0823 164.774 37.0823C164.612 37.0823 164.45 37.0823 164.289 37.0823C164.127 37.0823 163.912 37.0293 163.589 36.9764H163.535H163.481C162.242 37.2942 161.595 37.824 161.595 38.5656C161.595 38.8835 161.757 39.3073 162.403 39.6781C162.888 39.943 163.481 40.0489 164.235 40.0489H166.982C168.706 40.0489 170.053 40.4197 170.969 41.2143C171.885 41.956 172.316 43.0155 172.316 44.3928C172.316 45.9821 171.615 47.2005 170.269 48.207C168.814 49.1606 166.929 49.6373 164.612 49.6373ZM162.296 41.956C161.488 42.2738 160.841 42.7506 160.356 43.3333C159.871 43.969 159.656 44.6577 159.656 45.3993C159.656 46.4059 160.141 47.2535 161.11 47.8892C162.026 48.5249 163.211 48.8427 164.612 48.8427C166.228 48.8427 167.521 48.5249 168.437 47.8892C169.407 47.2005 169.945 46.2999 169.945 45.1875C169.945 44.4458 169.676 43.7571 169.191 43.2274C168.706 42.6976 168.06 42.3268 167.306 42.1679C166.875 42.1149 166.39 42.009 165.851 41.956C165.312 41.903 164.666 41.85 164.02 41.85C163.858 41.85 163.589 41.85 163.265 41.903C162.942 41.956 162.673 41.956 162.403 41.956H162.296ZM164.612 28.0766C163.589 28.0766 162.727 28.4474 162.08 29.2421C161.488 29.9837 161.164 31.0432 161.164 32.3146C161.164 33.586 161.488 34.5395 162.08 35.2282C162.673 35.9169 163.535 36.2877 164.612 36.2877C165.636 36.2877 166.498 35.9169 167.09 35.2282C167.683 34.5395 167.952 33.586 167.952 32.3676C167.952 31.0962 167.629 30.0367 167.036 29.2421C166.444 28.5004 165.636 28.0766 164.612 28.0766Z" fill="#FF8300"></path>
  <path d="M174.469 42.3799C174.469 41.1614 174.523 39.8901 174.577 38.5127C174.631 36.9764 174.685 36.0229 174.685 35.4932V33.9039C174.685 33.5861 174.631 32.6855 174.577 31.1492C174.523 29.8249 174.469 28.6594 174.469 27.6529C174.685 27.7059 174.9 27.7059 175.116 27.7059C175.385 27.7059 175.655 27.7588 175.978 27.7588C176.409 27.7588 176.894 27.7059 177.432 27.6529C177.432 28.6064 177.432 29.507 177.378 30.3016C177.325 32.4736 177.271 33.745 177.271 34.1158V36.1288L177.432 42.3799L176.894 42.3269C176.624 42.3269 176.463 42.2739 176.409 42.2739H176.032L174.469 42.3799ZM175.924 24.9512C175.439 24.9512 175.062 24.7923 174.739 24.4744C174.416 24.1566 174.254 23.7328 174.254 23.256C174.254 22.7792 174.416 22.4084 174.739 22.0905C175.062 21.7727 175.493 21.6138 175.924 21.6138C176.409 21.6138 176.786 21.7727 177.109 22.0905C177.432 22.4084 177.594 22.7792 177.594 23.256C177.594 23.7328 177.432 24.1036 177.109 24.4744C176.84 24.7923 176.409 24.9512 175.924 24.9512Z" fill="#FF8300"></path>
  <path d="M184.869 42.6976C183.414 42.6976 182.067 42.4328 180.828 41.85L180.936 41.4792C181.044 41.1614 181.097 40.8965 181.151 40.6316C181.205 40.5786 181.205 40.4197 181.259 40.2078C181.313 40.0489 181.313 39.89 181.367 39.6251C181.475 39.837 181.582 40.0489 181.744 40.1549C182.121 40.6316 182.66 41.0024 183.306 41.2673C183.953 41.5852 184.599 41.6911 185.246 41.6911C186.161 41.6911 186.97 41.4262 187.562 40.9495C188.209 40.4197 188.478 39.784 188.478 38.9894C188.478 37.771 187.616 36.8704 185.946 36.2347L184.922 35.8639C184.007 35.546 183.306 35.1752 182.768 34.8574C182.229 34.5395 181.798 34.1157 181.475 33.533C181.151 32.9503 180.99 32.3676 180.99 31.6789C180.99 30.4075 181.475 29.348 182.39 28.5534C183.36 27.7058 184.599 27.335 186.054 27.335C186.754 27.335 187.454 27.3879 188.101 27.5469C188.693 27.6528 189.34 27.9177 190.094 28.2355C190.04 28.3945 189.986 28.5534 189.933 28.7123C189.825 28.9772 189.771 29.1891 189.717 29.348L189.448 30.3545C189.124 29.7188 188.693 29.1891 188.155 28.8183C187.508 28.3415 186.808 28.1296 186 28.1296C185.246 28.1296 184.599 28.3945 184.06 28.8712C183.522 29.348 183.252 29.9837 183.252 30.6724C183.252 31.3081 183.468 31.8378 183.899 32.3146C184.33 32.7384 184.976 33.1092 185.838 33.4271L187.293 33.9568L188.693 34.5925C189.986 35.3341 190.633 36.4466 190.633 37.8769C190.633 39.3073 190.094 40.4197 189.017 41.3203C187.939 42.2209 186.539 42.6976 184.869 42.6976Z" fill="#FF8300"></path>
  <path d="M198.067 42.6976C196.936 42.6976 196.02 42.3798 195.428 41.797C194.835 41.2143 194.512 40.3667 194.512 39.3072V28.8182L193.488 28.9242H192.195L192.249 28.0766V27.6528C192.519 27.7058 192.788 27.7058 193.111 27.7587C193.542 27.8117 193.865 27.8117 194.242 27.8117H194.512V27.5468C194.512 27.0171 194.512 26.6463 194.458 26.3814C194.404 25.5868 194.35 25.057 194.35 24.7392C194.62 24.6862 194.835 24.5803 195.051 24.5273C195.32 24.4213 195.589 24.3154 195.859 24.2094C196.128 24.1035 196.397 23.9446 196.613 23.8386C196.774 23.7856 196.936 23.6797 197.152 23.5737L196.99 25.6397V27.8647H197.798C198.606 27.8647 199.63 27.8117 200.869 27.7058V28.3415L200.923 29.0301L198.444 28.9242H196.99V37.8769C196.99 38.7775 197.044 39.4132 197.098 39.731C197.313 41.0024 198.121 41.6911 199.414 41.6911C199.953 41.6911 200.545 41.5851 201.138 41.3203C201.192 41.5322 201.192 41.6381 201.192 41.6381C201.192 41.6911 201.246 41.85 201.3 42.0089C200.761 42.2738 200.222 42.4857 199.791 42.5917C199.36 42.6446 198.768 42.6976 198.067 42.6976Z" fill="#FF8300"></path>
  <path d="M203.239 42.3799C203.239 41.1614 203.293 39.8901 203.347 38.5127C203.401 36.9764 203.454 36.0229 203.454 35.4932V33.9039C203.454 33.5861 203.401 32.6855 203.347 31.1492C203.293 29.8249 203.239 28.6594 203.239 27.6529C203.454 27.7059 203.67 27.7059 203.885 27.7059C204.155 27.7059 204.424 27.7588 204.747 27.7588C205.178 27.7588 205.663 27.7059 206.202 27.6529C206.202 28.6064 206.202 29.507 206.148 30.3016C206.094 32.4736 206.04 33.745 206.04 34.1158V36.1288L206.202 42.3799L205.663 42.3269C205.394 42.3269 205.232 42.2739 205.178 42.2739H204.801L203.239 42.3799ZM204.693 24.9512C204.209 24.9512 203.832 24.7923 203.508 24.4744C203.185 24.1566 203.023 23.7328 203.023 23.256C203.023 22.7792 203.185 22.4084 203.508 22.0905C203.832 21.7727 204.262 21.6138 204.693 21.6138C205.178 21.6138 205.555 21.7727 205.879 22.0905C206.202 22.4084 206.364 22.7792 206.364 23.256C206.364 23.7328 206.202 24.1036 205.879 24.4744C205.609 24.7923 205.178 24.9512 204.693 24.9512Z" fill="#FF8300"></path>
  <path d="M217.622 42.6447C215.306 42.6447 213.366 41.956 211.912 40.5257C210.457 39.0954 209.703 37.2412 209.703 35.0163C209.703 32.7914 210.457 30.9372 211.912 29.5069C213.366 28.0766 215.252 27.3879 217.568 27.3879C218.7 27.3879 219.616 27.4939 220.262 27.7058C220.909 27.9177 221.609 28.2885 222.363 28.8712C222.255 29.0831 222.201 29.2421 222.094 29.401C221.986 29.6129 221.878 29.8778 221.77 30.0896C221.663 30.3545 221.609 30.5664 221.501 30.7783C221.447 30.8843 221.393 31.0432 221.393 31.2021C220.855 29.1361 219.508 28.0766 217.461 28.0766C216.06 28.0766 214.875 28.7123 213.959 29.9837C213.043 31.2021 212.612 32.7914 212.612 34.6985C212.612 36.6585 213.151 38.3007 214.175 39.6251C215.252 40.8965 216.599 41.5852 218.269 41.5852C219.616 41.5852 220.909 41.0554 222.04 39.9959C221.986 40.2608 221.878 40.4727 221.824 40.6846C221.77 40.9495 221.717 41.2673 221.663 41.5852C220.585 42.2738 219.185 42.6447 217.622 42.6447Z" fill="#FF8300"></path>
  <path d="M228.181 42.6976C226.726 42.6976 225.38 42.4328 224.141 41.85L224.248 41.4792C224.356 41.1614 224.41 40.8965 224.464 40.6316C224.518 40.5786 224.518 40.4197 224.572 40.2078C224.572 40.0489 224.625 39.89 224.679 39.6251C224.787 39.837 224.895 40.0489 225.056 40.1549C225.434 40.6316 225.972 41.0024 226.619 41.2673C227.265 41.5852 227.912 41.6911 228.558 41.6911C229.474 41.6911 230.282 41.4262 230.875 40.9495C231.521 40.4197 231.79 39.784 231.79 38.9894C231.79 37.771 230.929 36.8704 229.258 36.2347L228.235 35.8639C227.319 35.546 226.619 35.1752 226.08 34.8574C225.541 34.5395 225.11 34.1157 224.787 33.533C224.464 32.9503 224.302 32.3676 224.302 31.6789C224.302 30.4075 224.787 29.348 225.703 28.5534C226.673 27.7058 227.912 27.335 229.366 27.335C230.067 27.335 230.767 27.3879 231.413 27.5469C232.006 27.6528 232.652 27.9177 233.407 28.2355C233.353 28.3945 233.299 28.5534 233.245 28.7123C233.137 28.9772 233.083 29.1891 233.03 29.348L232.76 30.3545C232.437 29.7188 232.006 29.1891 231.467 28.8183C230.821 28.3415 230.12 28.1296 229.312 28.1296C228.558 28.1296 227.912 28.3945 227.373 28.8712C226.834 29.348 226.565 29.9837 226.565 30.6724C226.565 31.3081 226.78 31.8378 227.211 32.3146C227.642 32.7384 228.289 33.1092 229.151 33.4271L230.605 33.9568L232.006 34.5925C233.299 35.3341 233.945 36.4466 233.945 37.8769C233.945 39.3073 233.407 40.4197 232.329 41.3203C231.306 42.2209 229.905 42.6976 228.181 42.6976Z" fill="#FF8300"></path>
  <path d="M23.3588 6.46289L11.0221 13.5615C11.8302 14.0383 12.4766 14.621 13.0153 15.3626L23.9514 9.11163C23.6281 8.26403 23.4127 7.41644 23.3588 6.46289ZM13.0153 49.6903C12.4766 50.4319 11.8302 51.0146 11.0221 51.4914L23.4127 58.4841C23.4127 57.5835 23.6281 56.6829 24.0052 55.8883L13.0153 49.6903ZM37.4194 6.51587C37.4194 7.41644 37.2039 8.31701 36.8268 9.11163L47.8167 15.3097C48.3554 14.621 49.0019 13.9853 49.81 13.5085L37.4194 6.51587ZM56.7595 25.4808C55.9514 25.9046 55.0894 26.1695 54.1736 26.2754L54.2275 38.7245C55.1433 38.8305 56.0052 39.0953 56.8133 39.5191L56.7595 25.4808ZM47.7628 49.6373L36.8268 55.8883C37.2039 56.6829 37.3655 57.5835 37.4194 58.4841L49.7561 51.4384C48.948 50.9617 48.3015 50.326 47.7628 49.6373ZM6.5507 26.2754C5.63488 26.1695 4.77292 25.9046 3.96484 25.4278L4.01872 39.4662C4.8268 39.0424 5.68875 38.7775 6.60457 38.6715L6.5507 26.2754Z" fill="#006098"></path>
  <path d="M52.6108 26.2755C50.402 26.0106 48.4088 24.7922 47.3313 22.8851C46.1461 20.925 46.1461 18.5941 47.0081 16.6341L36.0182 10.436C34.7253 12.1312 32.6781 13.2437 30.3616 13.2437C28.0451 13.2437 25.998 12.1312 24.7051 10.3831L13.769 16.6341C13.9306 16.9519 14.0384 17.2698 14.0923 17.6406C14.5771 19.4417 14.3078 21.2959 13.3919 22.8851C12.2606 24.7922 10.2673 26.0636 8.05859 26.2755L8.11247 38.7245C10.3212 38.9894 12.3145 40.2078 13.3919 42.1149C14.3078 43.7042 14.5771 45.5583 14.0923 47.3594C13.9845 47.7302 13.8768 48.0481 13.7152 48.3659L24.7051 54.564C25.998 52.8688 28.0451 51.7563 30.3616 51.7563C32.6781 51.7563 34.7253 52.8688 36.0182 54.617L46.9542 48.3659C46.0923 46.4059 46.1461 44.128 47.2775 42.1679C48.4088 40.2608 50.402 38.9894 52.6108 38.7775V26.2755ZM38.0653 36.7115C37.365 40.5787 34.3482 43.1214 30.4155 43.1214C26.4828 43.1214 23.466 40.6316 22.7657 36.7115C22.1731 33.4271 24.4896 30.1426 26.4828 27.282L26.6983 26.9641C28.5838 24.2095 29.7152 20.1304 29.7152 20.1304L30.4155 17.4287L31.1158 20.1304C31.1158 20.1834 32.1933 24.2624 34.1327 26.9641L34.3482 27.282C36.3414 30.1956 38.6579 33.4271 38.0653 36.7115Z" fill="#006098"></path>
  <mask id="mask0_17054_140" style="mask-type:luminance" maskUnits="userSpaceOnUse" x="23" y="0" width="14" height="13">
    <path d="M23.9531 6.35697C23.9531 9.8533 26.8622 12.7139 30.4178 12.7139C33.9733 12.7139 36.8824 9.8533 36.8824 6.35697C36.8824 2.86064 33.9733 0 30.4178 0C26.8083 0 23.9531 2.86064 23.9531 6.35697Z" fill="white"></path>
  </mask>
  <g mask="url(#mask0_17054_140)">
    <path d="M36.8824 0H23.9531V12.7139H36.8824V0Z" fill="url(#paint0_radial_17054_140)"></path>
  </g>
  <mask id="mask1_17054_140" style="mask-type:luminance" maskUnits="userSpaceOnUse" x="0" y="13" width="14" height="13">
    <path d="M1.75666 16.2632C-0.0211165 19.2828 1.05632 23.2029 4.12703 24.9511C7.19774 26.6992 11.1843 25.6397 12.962 22.6202C14.7398 19.6006 13.6624 15.6805 10.5917 13.9323C9.56811 13.3496 8.4368 13.0847 7.35935 13.0847C5.1506 13.0847 2.99572 14.1972 1.75666 16.2632Z" fill="white"></path>
  </mask>
  <g mask="url(#mask1_17054_140)">
    <path d="M-6 23.2559L3.69697 6.78076L20.7744 16.4751L11.0774 32.9503L-6 23.2559Z" fill="url(#paint1_radial_17054_140)"></path>
  </g>
  <mask id="mask2_17054_140" style="mask-type:luminance" maskUnits="userSpaceOnUse" x="0" y="39" width="14" height="13">
    <path d="M4.12703 40.049C1.05632 41.7972 -0.0211165 45.6643 1.75666 48.7369C3.53444 51.7564 7.4671 52.8159 10.5917 51.0678C13.6624 49.3196 14.7398 45.4524 12.962 42.3799C11.7769 40.3669 9.56811 39.2014 7.35935 39.2014C6.28191 39.2014 5.1506 39.4663 4.12703 40.049Z" fill="white"></path>
  </mask>
  <g mask="url(#mask2_17054_140)">
    <path d="M3.69697 59.12L-6 42.5918L11.0774 32.8975L20.7744 49.4256L3.69697 59.12Z" fill="url(#paint2_radial_17054_140)"></path>
  </g>
  <mask id="mask3_17054_140" style="mask-type:luminance" maskUnits="userSpaceOnUse" x="23" y="52" width="14" height="13">
    <path d="M23.9531 58.6431C23.9531 62.1394 26.8622 65.0001 30.4178 65.0001C33.9733 65.0001 36.8824 62.1394 36.8824 58.6431C36.8824 55.1468 33.9733 52.2861 30.4178 52.2861C26.8083 52.2861 23.9531 55.0938 23.9531 58.6431Z" fill="white"></path>
  </mask>
  <g mask="url(#mask3_17054_140)">
    <path d="M36.8824 52.2861H23.9531V65.0001H36.8824V52.2861Z" fill="url(#paint3_radial_17054_140)"></path>
  </g>
  <mask id="mask4_17054_140" style="mask-type:luminance" maskUnits="userSpaceOnUse" x="46" y="39" width="14" height="13">
    <path d="M47.8192 42.3799C46.0414 45.3995 47.1188 49.3196 50.1895 51.0678C53.2602 52.8159 57.2468 51.7564 59.0245 48.7369C60.8023 45.7173 59.7249 41.7972 56.6542 40.049C55.6306 39.4663 54.4993 39.2014 53.4219 39.2014C51.1592 39.2014 49.0043 40.3139 47.8192 42.3799Z" fill="white"></path>
  </mask>
  <g mask="url(#mask4_17054_140)">
    <path d="M66.7822 42.5918L57.0853 59.12L40.0078 49.4256L49.7048 32.8975L66.7822 42.5918Z" fill="url(#paint4_radial_17054_140)"></path>
  </g>
  <mask id="mask5_17054_140" style="mask-type:luminance" maskUnits="userSpaceOnUse" x="46" y="13" width="14" height="13">
    <path d="M50.1895 13.9323C47.1188 15.6805 46.0414 19.5476 47.8192 22.6202C49.5969 25.6397 53.5296 26.6992 56.6542 24.9511C59.7249 23.2029 60.8023 19.3357 59.0245 16.2632C57.8394 14.2502 55.6306 13.0847 53.4219 13.0847C52.2905 13.0847 51.2131 13.3496 50.1895 13.9323Z" fill="white"></path>
  </mask>
  <g mask="url(#mask5_17054_140)">
    <path d="M57.0853 6.78076L66.7822 23.2559L49.7048 32.9503L40.0078 16.4751L57.0853 6.78076Z" fill="url(#paint5_radial_17054_140)"></path>
  </g>
  <mask id="mask6_17054_140" style="mask-type:luminance" maskUnits="userSpaceOnUse" x="23" y="20" width="15" height="23">
    <path d="M27.2908 27.3879C25.2975 30.2486 22.8733 33.48 23.4659 36.6055C24.0046 39.731 26.4288 42.4327 30.4154 42.4327C34.4019 42.4327 36.7723 39.731 37.3649 36.6055C37.9036 33.48 35.5332 30.2486 33.54 27.3879C31.5467 24.5273 30.4154 20.2893 30.4154 20.2893C30.4154 20.2893 29.2841 24.5273 27.2908 27.3879Z" fill="white"></path>
  </mask>
  <g mask="url(#mask6_17054_140)">
    <path d="M23.5202 17.3757L42.3754 21.2429L37.2576 45.3464L18.4023 41.4792L23.5202 17.3757Z" fill="url(#paint6_radial_17054_140)"></path>
  </g>
  <defs>
    <radialGradient id="paint0_radial_17054_140" cx="0" cy="0" r="1" gradientUnits="userSpaceOnUse" gradientTransform="translate(30.3929 6.35543) scale(6.46204 6.35441)">
      <stop stop-color="#FEFEFE"></stop>
      <stop offset="0.7965" stop-color="#F4B223"></stop>
      <stop offset="1" stop-color="#F4B223"></stop>
    </radialGradient>
    <radialGradient id="paint1_radial_17054_140" cx="0" cy="0" r="1" gradientUnits="userSpaceOnUse" gradientTransform="translate(7.37644 19.4227) rotate(-59.5815) scale(6.38148 6.43462)">
      <stop stop-color="#FEFEFE"></stop>
      <stop offset="0.7965" stop-color="#F4B223"></stop>
      <stop offset="1" stop-color="#F4B223"></stop>
    </radialGradient>
    <radialGradient id="paint2_radial_17054_140" cx="0" cy="0" r="1" gradientUnits="userSpaceOnUse" gradientTransform="translate(7.3771 45.5559) rotate(-120.418) scale(6.38148 6.43462)">
      <stop stop-color="#FEFEFE"></stop>
      <stop offset="0.7965" stop-color="#F4B223"></stop>
      <stop offset="1" stop-color="#F4B223"></stop>
    </radialGradient>
    <radialGradient id="paint3_radial_17054_140" cx="0" cy="0" r="1" gradientUnits="userSpaceOnUse" gradientTransform="translate(30.3928 58.6236) rotate(180) scale(6.46204 6.35441)">
      <stop stop-color="#FEFEFE"></stop>
      <stop offset="0.7965" stop-color="#F4B223"></stop>
      <stop offset="1" stop-color="#F4B223"></stop>
    </radialGradient>
    <radialGradient id="paint4_radial_17054_140" cx="0" cy="0" r="1" gradientUnits="userSpaceOnUse" gradientTransform="translate(53.4098 45.5563) rotate(120.418) scale(6.38148 6.43462)">
      <stop stop-color="#FEFEFE"></stop>
      <stop offset="0.7965" stop-color="#F4B223"></stop>
      <stop offset="1" stop-color="#F4B223"></stop>
    </radialGradient>
    <radialGradient id="paint5_radial_17054_140" cx="0" cy="0" r="1" gradientUnits="userSpaceOnUse" gradientTransform="translate(53.4098 19.4221) rotate(59.5815) scale(6.38148 6.43462)">
      <stop stop-color="#FEFEFE"></stop>
      <stop offset="0.7965" stop-color="#F4B223"></stop>
      <stop offset="1" stop-color="#F4B223"></stop>
    </radialGradient>
    <radialGradient id="paint6_radial_17054_140" cx="0" cy="0" r="1" gradientUnits="userSpaceOnUse" gradientTransform="translate(30.4979 33.1554) rotate(11.5777) scale(7.8827 7.76206)">
      <stop stop-color="#FEFEFE"></stop>
      <stop offset="0.7965" stop-color="#F4B223"></stop>
      <stop offset="1" stop-color="#F4B223"></stop>
    </radialGradient>
  </defs>
</svg>
