<?xml version="1.0" encoding="utf-8"?>
<!-- Generator: Adobe Illustrator 22.0.1, SVG Export Plug-In . SVG Version: 6.00 Build 0)  -->
<svg version="1.1" id="Layer_1" xmlns="http://www.w3.org/2000/svg" xmlns:xlink="http://www.w3.org/1999/xlink" x="0px" y="0px"
	 viewBox="0 0 275 76.8" style="enable-background:new 0 0 275 76.8;" xml:space="preserve">
<style type="text/css">
	.st0{fill:#FFFFFF;}
	.st1{fill:#BBBDBF;}
	.st2{fill:#B62126;}
	.st3{fill:#EC1B34;}
</style>
<g>
	<path class="st0" d="M268.3,5h1.1c0.5,0,0.9-0.1,1.1-0.2c0.2-0.2,0.3-0.4,0.3-0.6s0-0.3-0.1-0.5c-0.1-0.1-0.2-0.2-0.4-0.3
		c-0.2-0.1-0.5-0.1-0.9-0.1h-1V5H268.3z M267.4,8.2V2.5h2c0.7,0,1.2,0,1.5,0.2c0.3,0.1,0.5,0.3,0.7,0.6c0.2,0.3,0.3,0.5,0.3,0.8
		c0,0.4-0.1,0.8-0.4,1.1c-0.3,0.3-0.7,0.5-1.2,0.5c0.2,0.1,0.4,0.2,0.5,0.3c0.2,0.2,0.5,0.6,0.8,1.1l0.7,1.1h-1.1l-0.5-0.9
		c-0.4-0.7-0.7-1.1-1-1.3c-0.2-0.1-0.4-0.2-0.7-0.2h-0.5v2.4C268.5,8.2,267.4,8.2,267.4,8.2z M269.7,0.8c-0.7,0-1.5,0.2-2.2,0.6
		s-1.3,0.9-1.7,1.6c-0.4,0.7-0.6,1.4-0.6,2.2c0,0.8,0.2,1.5,0.6,2.2s0.9,1.2,1.6,1.6s1.4,0.6,2.2,0.6c0.8,0,1.5-0.2,2.2-0.6
		s1.2-0.9,1.6-1.6S274,6,274,5.2c0-0.8-0.2-1.5-0.6-2.2s-0.9-1.3-1.7-1.6C271.2,1,270.5,0.8,269.7,0.8 M269.7,0
		c0.9,0,1.8,0.2,2.6,0.7c0.8,0.5,1.5,1.1,2,2c0.5,0.8,0.7,1.7,0.7,2.7c0,0.9-0.2,1.8-0.7,2.6c-0.5,0.8-1.1,1.5-2,2
		c-0.8,0.5-1.7,0.7-2.6,0.7s-1.8-0.2-2.6-0.7c-0.8-0.5-1.5-1.1-2-2c-0.5-0.8-0.7-1.7-0.7-2.6s0.2-1.8,0.7-2.7c0.5-0.8,1.1-1.5,2-2
		S268.8,0,269.7,0"/>
	<polygon class="st0" points="5.7,17 13.9,17 11.9,30.3 27.6,30.3 29.6,17 37.7,17 32.5,52 24.4,52 26.6,36.9 10.9,36.9 8.7,52 
		0.6,52 	"/>
	<polygon class="st0" points="68.4,37.1 49.6,37.1 48.4,45.3 69.8,45.3 67.9,52 39.4,52 44.6,17 72.4,17 71.4,23.7 51.6,23.7 
		50.6,30.5 69.4,30.5 	"/>
	<path class="st0" d="M85.4,44L81,52h-8.6l18.8-34.9h10.5l9.2,34.9h-8.5l-2-8H85.4z M98.9,37.3C97,29.7,96,25.2,95.6,22.6h-0.1
		c-1.2,2.7-3.6,7.8-7.1,14.7H98.9z"/>
	<path class="st0" d="M120.1,17h14.7c10.6,0,16.4,7.2,16.4,15.8c0,11.5-7.7,19.2-20.5,19.2h-15.8L120.1,17z M124,45.4h7
		c7.9,0,11.5-5.5,11.5-12.3c0-6.1-3.3-9.6-9.4-9.6h-5.8L124,45.4z"/>
	<path class="st0" d="M205.7,44l-4.4,8h-8.6l18.8-34.9H222l9.2,34.9h-8.5l-2-8H205.7z M219.1,37.3c-1.9-7.6-2.9-12.1-3.3-14.7h-0.1
		c-1.2,2.7-3.6,7.8-7.1,14.7H219.1z"/>
	<path class="st0" d="M236.8,52l1.8-12.5c0.1-0.5,0-0.7-0.3-1.1l-10.6-21.3h9.1c2.7,5.8,5.7,12.7,6.9,15.9
		c2.1-3.1,7.8-10.4,11.9-15.9h8.8l-17.4,22c-0.2,0.3-0.3,0.5-0.4,1.2L245,52H236.8z"/>
	<path class="st1" d="M3.2,76.5L0,63.6h3.1l1.3,6.1C4.9,72,5.1,73.3,5.2,74l0,0c0.3-0.7,0.5-1.2,2.2-4.5l3.1-5.9h3.2L6.6,76.5H3.2z"
		/>
	<path class="st1" d="M15.1,73.5l-1.6,3h-3.2l6.9-12.9h3.9l3.4,12.9h-3.1l-0.7-3H15.1z M20,71.1c-0.7-2.8-1.1-4.5-1.2-5.4l0,0
		c-0.4,1-1.3,2.9-2.6,5.4H20z"/>
	<polygon class="st1" points="27.4,63.6 30.4,63.6 28.9,74.1 35.9,74.1 35.2,76.5 25.5,76.5 	"/>
	<path class="st1" d="M41.1,63.6L40,71c-0.4,2.7,0.9,3.4,2.5,3.4c1.7,0,2.7-0.6,3.2-3.4l1.1-7.4h3l-1.1,7.6
		c-0.6,4.1-2.5,5.6-6.4,5.6c-3.2,0-5.9-1.3-5.2-5.8l1.1-7.3L41.1,63.6L41.1,63.6z"/>
	<polygon class="st1" points="61.2,71 54.3,71 53.8,74.1 61.7,74.1 61,76.5 50.5,76.5 52.4,63.6 62.7,63.6 62.4,66 55,66 54.7,68.6 
		61.6,68.6 	"/>
	<path class="st1" d="M71.2,73.5l-1.6,3h-3.2l6.9-12.9h3.9l3.4,12.9h-3.1l-0.7-3H71.2z M76.1,71.1c-0.7-2.8-1.1-4.5-1.2-5.4l0,0
		c-0.4,1-1.3,2.9-2.6,5.4H76.1z"/>
	<path class="st1" d="M83.5,63.6h5.4c3.9,0,6,2.6,6,5.8c0,4.2-2.9,7.1-7.6,7.1h-5.8L83.5,63.6z M85,74.1h2.6c2.9,0,4.3-2,4.3-4.5
		c0-2.3-1.2-3.5-3.5-3.5h-2.1L85,74.1z"/>
	<path class="st1" d="M98,63.6h5.4c3.9,0,6.1,2.6,6.1,5.8c0,4.2-2.9,7.1-7.6,7.1h-5.8L98,63.6z M99.5,74.1h2.6c2.9,0,4.3-2,4.3-4.5
		c0-2.3-1.2-3.5-3.5-3.5h-2.1L99.5,74.1z"/>
	<polygon class="st1" points="121.3,71 114.4,71 113.9,74.1 121.8,74.1 121.1,76.5 110.6,76.5 112.5,63.6 122.8,63.6 122.4,66 
		115.1,66 114.7,68.6 121.7,68.6 	"/>
	<path class="st1" d="M125.1,63.6h5.4c3.9,0,6,2.6,6,5.8c0,4.2-2.9,7.1-7.6,7.1h-5.8L125.1,63.6z M126.5,74.1h2.6
		c2.9,0,4.3-2,4.3-4.5c0-2.3-1.2-3.5-3.5-3.5h-2.1L126.5,74.1z"/>
	<polygon class="st1" points="144.4,63.6 147.4,63.6 145.9,74.1 152.9,74.1 152.2,76.5 142.5,76.5 	"/>
	<path class="st1" d="M167.2,69.3c0,3.9-2.5,7.5-7.5,7.5c-4,0-6.2-2.5-6.2-6c0-3.6,2.5-7.4,7.5-7.4
		C164.9,63.3,167.2,65.9,167.2,69.3 M156.6,70.6c0,2.3,1.1,3.8,3.3,3.8c2.8,0,4-2.6,4-5.1c0-1.9-0.9-3.6-3.3-3.6
		C158,65.7,156.6,68.3,156.6,70.6"/>
	<path class="st1" d="M180.6,76.5h-2.2c0-0.3,0-0.7,0-1.3c-0.8,0.9-1.9,1.6-4.2,1.6c-3.9,0-5.7-2.7-5.7-6c0-3.9,2.8-7.5,7.5-7.5
		c3.9,0,5.6,2.1,5.9,4.1h-3.1c-0.2-0.7-0.8-1.8-2.9-1.8c-2.6,0-4.1,2.2-4.1,5c0,2.4,1,3.8,3.3,3.8c2.5,0,3.3-1.6,3.4-2.8v-0.1h-3.2
		l0.4-2.4h6.1L180.6,76.5z"/>
	<polygon class="st1" points="187.9,63.6 186,76.5 183,76.5 184.9,63.6 	"/>
	<path class="st1" d="M191.2,72.6c0.3,1.2,1.3,2,3.2,2c1.6,0,2.7-0.5,2.7-1.6c0-0.9-0.6-1.4-2.9-1.9c-3.7-0.8-4.8-1.9-4.8-3.7
		c0-2.4,2.1-4,5.5-4c4.3,0,5.5,2.3,5.6,3.8h-3c-0.1-0.7-0.7-1.6-2.8-1.6c-1.4,0-2.2,0.6-2.2,1.4s0.6,1.1,2.8,1.6
		c4,0.9,4.8,2.2,4.8,4c0,2.3-1.9,4.2-6.1,4.2c-3.7,0-5.6-1.6-5.9-4.2C188.1,72.6,191.2,72.6,191.2,72.6z"/>
	<polygon class="st1" points="205.7,66 201.3,66 201.6,63.6 213.4,63.6 213.1,66 208.6,66 207.1,76.5 204.1,76.5 	"/>
	<polygon class="st1" points="217.9,63.6 216,76.5 213,76.5 214.9,63.6 	"/>
	<path class="st1" d="M231.6,72.4c-0.8,2.5-2.8,4.3-6.5,4.3c-4.2,0-6.1-2.6-6.1-5.9c0-3.9,2.7-7.5,7.4-7.5c3.6,0,5.6,2,5.8,4.5H229
		c-0.1-0.8-0.7-2.1-2.8-2.1c-2.7,0-4,2.5-4,5c0,2,0.8,3.7,3.1,3.7c1.6,0,2.5-0.7,3.1-2H231.6z"/>
	<path class="st1" d="M235.5,72.6c0.3,1.2,1.3,2,3.2,2c1.6,0,2.7-0.5,2.7-1.6c0-0.9-0.6-1.4-2.9-1.9c-3.7-0.8-4.8-1.9-4.8-3.7
		c0-2.4,2.1-4,5.5-4c4.3,0,5.5,2.3,5.6,3.8h-3c-0.1-0.7-0.7-1.6-2.8-1.6c-1.4,0-2.2,0.6-2.2,1.4s0.6,1.1,2.8,1.6
		c4,0.9,4.8,2.2,4.8,4c0,2.3-1.9,4.2-6.1,4.2c-3.7,0-5.6-1.6-5.9-4.2C232.4,72.6,235.5,72.6,235.5,72.6z"/>
	<path class="st2" d="M194.2,16.9c-3.5,7.4-6.9,14.8-10.4,22.2c-0.3-7.4-0.5-14.8-0.8-22.2h-9.9c-2.8,7.4-5.5,14.8-8.3,22.2
		c0.9,4.2,1.9,8.4,2.8,12.7l7.4-19.7h0.2c0.2,6.6,0.4,13.2,0.6,19.7h10.4c5.7-11.6,11.5-23.3,17.2-34.9
		C203.4,16.9,194.2,16.9,194.2,16.9z"/>
	<path class="st3" d="M175.7,51.8c-0.9-11.6-1.8-23.2-2.6-34.8h9.9c1.1,11.6,2.1,23.2,3.2,34.8H175.7z"/>
	<path class="st3" d="M156.6,51.8c-0.7-11.6-1.4-23.2-2.1-34.8h10c1,11.6,2.1,23.2,3.1,34.8H156.6z"/>
	<path class="st3" d="M203.4,16.9c1.8-3.9,3.6-7.8,5.4-11.7c-2.4,2.2-5.5,4.7-9.4,7.1c-3.4,2.1-6.7,3.6-9.5,4.6
		C189.9,16.9,203.4,16.9,203.4,16.9z"/>
	<path class="st3" d="M208.8,5.3c-1,3.9-2.1,7.7-3.1,11.6c1.9,0,3.8,0,5.6,0c-0.5-0.7-1.1-1.6-1.5-2.6
		C208.2,10.6,208.5,7.2,208.8,5.3"/>
</g>
</svg>
